<?xml version="1.0" standalone="no"?>
<!DOCTYPE svg PUBLIC "-//W3C//DTD SVG 20010904//EN"
 "http://www.w3.org/TR/2001/REC-SVG-20010904/DTD/svg10.dtd">
<svg version="1.0" xmlns="http://www.w3.org/2000/svg"
 width="600.000000pt" height="600.000000pt" viewBox="0 0 600.000000 600.000000"
 preserveAspectRatio="xMidYMid meet">
<metadata>
Created by potrace 1.14, written by Peter Selinger 2001-2017
</metadata>
<g transform="translate(0.000000,600.000000) scale(0.100000,-0.100000)"
fill="#000000" stroke="none">
<path d="M2953 5357 c-12 -18 -43 -54 -68 -82 -50 -55 -72 -93 -81 -139 -8
-41 -11 -109 -5 -121 3 -5 7 -18 8 -29 3 -14 -1 -17 -14 -11 -91 36 -237 4
-279 -60 -22 -34 -10 -58 41 -83 53 -26 98 -83 114 -149 19 -74 41 -120 73
-153 15 -17 32 -30 36 -30 5 0 8 -546 3 -627 -1 -10 -79 -13 -355 -13 l-354 0
-10 30 c-6 16 -24 42 -39 56 -31 30 -109 68 -134 66 -9 0 -45 14 -79 31 -53
27 -68 40 -91 82 -37 67 -51 75 -86 49 -47 -35 -76 -98 -77 -168 0 -33 3 -76
8 -94 8 -33 7 -34 -15 -26 -39 12 -121 11 -162 -2 -67 -23 -231 -153 -233
-185 -1 -12 9 -27 25 -37 14 -9 28 -19 31 -22 20 -24 128 -103 158 -116 41
-17 131 -23 176 -11 26 7 28 6 22 -15 -20 -72 -18 -133 7 -188 37 -84 82 -115
117 -80 11 11 20 26 20 33 0 35 98 108 164 121 71 15 86 19 86 27 0 5 6 9 13
9 8 0 31 17 51 37 l38 38 359 1 c197 0 359 -2 360 -5 0 -4 1 -451 2 -994 l2
-988 -29 -27 c-30 -28 -61 -88 -70 -134 -8 -44 -42 -113 -67 -137 -13 -12 -43
-31 -66 -42 -33 -15 -43 -25 -43 -43 0 -34 59 -82 123 -101 51 -15 68 -15 151
1 37 7 38 6 31 -17 -31 -96 12 -224 104 -309 9 -8 27 -30 39 -48 30 -41 54
-41 89 4 15 19 45 54 66 77 66 75 84 122 81 219 l-2 85 37 -13 c72 -24 177 -2
234 51 46 42 43 69 -9 91 -73 31 -115 91 -139 199 -12 51 -78 145 -103 145 -4
0 -8 447 -7 993 l0 992 373 0 374 1 20 -28 c23 -34 98 -74 153 -82 21 -4 58
-18 82 -32 41 -24 93 -86 93 -110 0 -32 65 -32 94 0 54 61 70 153 45 256 -2 8
1 14 6 13 137 -22 193 -4 321 102 102 85 104 91 37 140 -27 19 -59 47 -73 61
-54 58 -198 98 -266 73 -30 -11 -33 -5 -19 48 7 26 10 63 8 82 -11 81 -72 171
-115 171 -11 0 -26 -17 -39 -42 -39 -76 -97 -119 -180 -133 -78 -13 -157 -71
-179 -130 l-10 -25 -363 0 -363 0 0 319 c0 313 0 320 20 331 36 19 76 95 91
168 8 45 39 94 80 127 23 19 47 35 53 35 22 0 41 41 31 64 -18 39 -112 87
-174 89 -19 0 -105 -13 -120 -19 -13 -5 -14 -2 -5 21 13 34 13 110 -1 158 -13
47 -160 232 -186 234 -11 1 -28 -12 -40 -30z"/>
</g>
</svg>
